<svg width="126" height="28" viewBox="0 0 126 28" fill="none" xmlns="http://www.w3.org/2000/svg">
<path d="M118.807 12.3652C118.807 13.4055 118.391 13.9702 117.469 13.9702H116.251V8.56048H117.469C118.391 8.56048 118.807 9.12524 118.807 10.1359V12.3652ZM117.499 7.2229H114.705V20.6581H116.28V15.3078H117.499C119.312 15.3078 120.442 14.4161 120.442 12.6921C120.442 12.6921 120.442 9.86834 120.442 9.83861C120.442 8.20379 119.372 7.2229 117.499 7.2229Z" fill="#302E38"/>
<path d="M106.352 7.01489C104.569 7.01489 103.469 7.99578 103.469 9.77922V18.1019C103.469 20.0043 104.628 20.8366 106.323 20.8366C108.076 20.8366 109.176 20.034 109.176 18.1317V13.3758H106.234V14.7134H107.631V18.0722C107.631 19.1126 107.155 19.4692 106.323 19.4692C105.58 19.4692 105.015 19.1126 105.015 18.0425C105.015 15.2782 105.015 9.83867 105.015 9.83867C105.015 8.82806 105.52 8.3822 106.323 8.3822C107.155 8.3822 107.631 8.82806 107.631 9.80895V11.1465H109.176V9.71978C109.176 7.90661 108.136 7.01489 106.352 7.01489Z" fill="#302E38"/>
<path d="M111.732 26.603C104.777 26.603 99.1294 20.9554 99.1294 14C99.1294 7.04459 104.777 1.39703 111.732 1.39703C118.688 1.39703 124.335 7.07431 124.335 14C124.335 20.9554 118.658 26.603 111.732 26.603ZM111.732 0C104.004 0 97.7324 6.27176 97.7324 14C97.7324 21.7282 104.004 28 111.732 28C119.461 28 125.732 21.7282 125.732 14C125.732 6.27176 119.431 0 111.732 0Z" fill="#302E38"/>
<path d="M111.762 12.9299C111.168 12.9299 110.722 13.4352 110.722 14C110.722 14.5945 111.168 15.0403 111.762 15.0403C112.297 15.0403 112.832 14.5945 112.832 14C112.832 13.4352 112.297 12.9299 111.762 12.9299Z" fill="#302E38"/>
<path d="M27.1379 13.5838C27.1379 14.6241 26.811 14.8619 25.9787 14.8619H24.9086V10.7897H25.9787C26.8704 10.7897 27.1379 11.0275 27.1379 12.0679V13.5838ZM25.9787 9.57104H23.4521V20.4203H24.9086V16.0806H25.9787C27.8513 16.0806 28.5647 15.4267 28.5647 13.6432V11.9192C28.5944 10.225 27.8513 9.57104 25.9787 9.57104Z" fill="#302E38"/>
<path d="M12.0084 12.9001C12.0084 14.1188 11.5923 14.2972 10.8194 14.2972H9.57104V10.7897H10.8194C11.5923 10.7897 12.0084 10.8789 12.0084 12.0381V12.9001ZM10.8194 9.57104H8.14429V20.3906H9.60076V15.5456H10.8492C11.7706 15.5456 12.0679 15.7239 12.0679 16.9723V20.4203H13.5243V16.9129C13.5243 15.8428 13.346 15.2781 12.5434 14.9511C13.3757 14.6241 13.5243 13.9107 13.5243 12.9001V11.9192C13.4649 9.98718 12.4543 9.57104 10.8194 9.57104Z" fill="#302E38"/>
<path d="M2.88323 6.74744C1.09979 6.74744 0 7.72833 0 9.51177V17.8345C0 19.7368 1.15924 20.5691 2.85351 20.5691C4.60722 20.5691 5.70701 19.7665 5.70701 17.8642V13.1084H2.79406V14.446H4.16136V17.8048C4.16136 18.8748 3.68578 19.2018 2.85351 19.2018C2.1104 19.2018 1.54565 18.8451 1.54565 17.775C1.54565 15.0107 1.54565 9.57122 1.54565 9.57122C1.54565 8.5606 2.05096 8.11474 2.85351 8.11474C3.68578 8.11474 4.16136 8.5606 4.16136 9.54149V10.8791H5.70701V9.45232C5.73673 7.63916 4.66667 6.74744 2.88323 6.74744Z" fill="#302E38"/>
<path d="M34.0637 17.983C34.0637 18.9044 33.6476 19.3206 32.845 19.3206C32.0722 19.3206 31.6263 18.9342 31.6263 17.9533V12.0382C31.6263 11.087 32.0425 10.6709 32.845 10.6709C33.5584 10.6709 34.0637 11.0276 34.0637 12.0085V17.983ZM32.8153 9.36304C31.2102 9.36304 30.1401 10.1656 30.1401 11.9193V18.0424C30.1401 19.7367 31.121 20.5987 32.8153 20.5987C34.4798 20.5987 35.4607 19.7664 35.4607 18.0424V11.9193C35.4905 10.1359 34.3907 9.36304 32.8153 9.36304Z" fill="#302E38"/>
<path d="M19.677 18.1613C19.677 19.053 19.2311 19.4097 18.4583 19.4097C17.6855 19.4097 17.2396 19.053 17.2396 18.1613V9.57104H15.7534V18.1316C15.7534 20.0042 17.0018 20.5986 18.4286 20.5986C19.8553 20.5986 21.1037 20.0042 21.1037 18.1316V9.57104H19.6473V18.1613" fill="#302E38"/>
<path d="M48.896 20.3906H53.3843V19.1422H50.3227V15.5158H53.3843V14.2972H50.3227V10.7897H53.3843V9.57104H48.896V20.3906Z" fill="#302E38"/>
<path d="M76.7772 9.36304C75.0532 9.36304 74.0723 10.2548 74.0723 11.9193V12.3652C74.0723 13.5838 74.5776 14.1783 75.4098 14.6836L76.9852 15.724C77.8175 16.259 77.9661 16.4373 77.9661 17.0913V18.0424C77.9661 18.9342 77.55 19.3206 76.7474 19.3206C76.0043 19.3206 75.5287 18.9342 75.5287 18.0722C75.5287 18.0722 75.5287 17.0318 75.5287 16.4076H74.0723V18.0722C74.0723 19.7962 75.0829 20.6284 76.7474 20.6284C78.412 20.6284 79.4226 19.7367 79.4226 18.1019V17.121C79.4226 15.9618 79.0064 15.3673 78.085 14.8025C78.085 14.7728 76.5096 13.7919 76.5096 13.7919C75.6774 13.2272 75.5287 13.138 75.5287 12.3057V11.9787C75.5287 11.0276 76.0043 10.7006 76.7474 10.7006C77.55 10.7006 77.9661 11.1465 77.9661 11.9787V13.0785H79.4226V11.949C79.4226 10.2845 78.4714 9.36304 76.7772 9.36304Z" fill="#302E38"/>
<path d="M81.5032 20.3906H85.9915V19.1422H82.9596V15.5158H85.9915V14.2972H82.9596V10.7897H85.9915V9.57104H81.5032V20.3906Z" fill="#302E38"/>
<path d="M70.743 12.9001C70.743 14.1188 70.3268 14.2972 69.554 14.2972H68.3056V10.7897H69.554C70.3268 10.7897 70.743 10.8789 70.743 12.0381V12.9001ZM69.5243 9.57104H66.8491V20.3906H68.3056V15.5456H69.554C70.4755 15.5456 70.7727 15.7239 70.7727 16.9723V20.4203H72.2292V16.9129C72.2292 15.8428 72.0508 15.2781 71.2483 14.9511C72.0805 14.6241 72.2292 13.9107 72.2292 12.9001V11.9192C72.1994 9.98718 71.1888 9.57104 69.5243 9.57104Z" fill="#302E38"/>
<path d="M91.9361 16.9129C91.9361 17.8938 91.9956 18.6369 92.055 19.1124H91.9659C91.9659 19.1124 91.8172 17.864 91.7281 17.4182L90.0932 9.57104H87.9531V20.3906H89.3204L89.2907 13.1974C89.2907 12.2462 89.1718 10.8195 89.1718 10.8195H89.261C89.261 10.8195 89.4096 12.157 89.5582 12.9001L91.1336 20.3609H93.3034V9.57104H91.9361V16.9129Z" fill="#302E38"/>
<path d="M54.0977 10.7897H55.8811V20.3906H57.3376V10.7897H59.121V9.57104H54.0977V10.7897Z" fill="#302E38"/>
<path d="M45.6561 12.0977C45.6561 13.138 45.24 13.7028 44.3185 13.7028H43.0998V8.29302H44.3185C45.24 8.29302 45.6561 8.82806 45.6561 9.8684V12.0977ZM44.3483 6.95544H41.5542V20.3907H43.0998V15.0404H44.3185C46.1317 15.0404 47.2612 14.1487 47.2612 12.4247C47.2612 12.4247 47.2612 9.60088 47.2612 9.57116C47.2909 7.93634 46.2209 6.95544 44.3483 6.95544Z" fill="#302E38"/>
<path d="M38.4925 12.6624C37.898 12.6624 37.4521 13.1677 37.4521 13.7324C37.4521 14.3269 37.898 14.7728 38.4925 14.7728C39.0275 14.7728 39.5625 14.3269 39.5625 13.7324C39.5625 13.1677 39.0572 12.6624 38.4925 12.6624Z" fill="#302E38"/>
<path d="M60.5776 20.3906H65.066V19.1422H62.0044V15.5158H65.066V14.2972H62.0044V10.7897H65.066V9.57104H60.5776V20.3906Z" fill="#302E38"/>
</svg>
