<svg width="184" height="32" viewBox="0 0 184 32" fill="none" xmlns="http://www.w3.org/2000/svg">
<path d="M15.2344 18.0583C15.2344 20.8973 15.2344 23.7443 15.2344 26.5912C15.2344 27.2168 15.2344 27.8423 15.2344 28.4652C15.7194 28.4652 16.2044 28.4652 16.692 28.4652C16.692 27.8396 16.692 27.2141 16.692 26.5912C16.692 23.7416 16.692 20.8973 16.692 18.0583C19.3581 20.6353 22.0321 23.207 24.6981 25.7893C23.3598 29.489 19.8695 31.9537 15.9605 31.9537C12.0542 31.9537 8.56657 29.489 7.22559 25.7893C9.89695 23.207 12.5604 20.6353 15.2344 18.0583Z" fill="#189D4A"/>
<path d="M15.155 16.3742C12.3114 19.0795 9.46242 21.7848 6.61349 24.4927C4.77958 24.2762 2.93771 24.0623 1.10114 23.8458C-0.367048 18.9725 -0.367048 13.7731 1.10114 8.89987C2.93771 8.68334 4.78223 8.46948 6.61349 8.2583C9.46507 10.9636 12.3114 13.6716 15.155 16.3742Z" fill="#189D4A"/>
<path d="M16.769 16.3742C19.6153 13.6716 22.4616 10.9609 25.3105 8.2583C27.1471 8.47216 28.9837 8.68334 30.8202 8.89987C32.2858 13.7731 32.2858 18.9725 30.8202 23.8458C28.9837 24.0597 27.1444 24.2762 25.3105 24.4927C22.4616 21.7874 19.6153 19.0821 16.769 16.3742Z" fill="#189D4A"/>
<path d="M7.22852 6.96715C8.5695 3.26208 12.0571 0.800049 15.9635 0.800049C19.8698 0.800049 23.3627 3.26475 24.7011 6.96715C22.035 9.54412 19.361 12.1184 16.6949 14.6954V6.1839C17.0076 6.11974 17.2726 5.84173 17.2302 5.52361C17.5324 5.50223 17.5801 5.22421 17.4317 5.08253C17.1931 4.85531 16.9546 4.62542 16.7135 4.39285C16.5969 4.2779 16.4802 4.16295 16.361 4.048C16.2921 3.98117 16.2285 3.91167 16.1569 3.84751C16.1463 3.84216 16.141 3.83682 16.1331 3.8288C16.1198 3.81543 16.1013 3.80741 16.0854 3.80207C16.0456 3.78335 16.0085 3.77533 15.9635 3.77533C15.9237 3.77533 15.8866 3.78335 15.8442 3.79939C15.8283 3.80741 15.8071 3.81811 15.7939 3.8288C15.7859 3.83682 15.7806 3.84216 15.7753 3.84751C15.7064 3.91167 15.6375 3.98117 15.5686 4.048C15.4493 4.16028 15.3327 4.2779 15.2108 4.39285C14.975 4.62542 14.7364 4.85264 14.4979 5.08253C14.3469 5.22689 14.3999 5.50758 14.7046 5.52629C14.6622 5.83905 14.9273 6.11439 15.2347 6.1732V14.6954C12.5607 12.1184 9.89723 9.54145 7.22852 6.96715Z" fill="#189D4A"/>
<path d="M40.1489 8.83838H45.3486C47.2673 8.83838 50.1427 9.39975 50.1427 12.7012C50.1427 14.4869 48.9475 15.7406 47.1825 16.0641V16.1068C49.2045 16.302 50.5906 17.6787 50.5906 19.5366C50.5906 23.3325 47.2249 23.8966 45.3486 23.8966H40.1489V8.83838ZM43.1357 14.9253H44.3468C45.603 14.9253 47.1586 14.6392 47.1586 13.0888C47.1586 11.3405 45.648 11.2149 44.2832 11.2149H43.1357V14.9253ZM43.1357 21.5201H44.5376C45.921 21.5201 47.6065 21.1753 47.6065 19.4296C47.6065 17.4622 46.0296 17.1628 44.5376 17.1628H43.1357V21.5201Z" fill="black" fill-opacity="0.8"/>
<path d="M53.4023 13.8212C54.5101 13.3213 56.0021 13.0139 57.2159 13.0139C60.5604 13.0139 61.9491 14.3612 61.9491 17.5183V18.8896C61.9491 19.9669 61.9703 20.7796 61.9915 21.5655C62.0101 22.3728 62.0525 23.124 62.1161 23.9554H59.6011C59.4951 23.3913 59.4951 22.6883 59.4765 22.3595H59.4315C58.7742 23.5384 57.3458 24.204 56.0472 24.204C54.1099 24.204 52.2124 23.0598 52.2124 21.0282C52.2124 19.4296 52.9995 18.494 54.0861 17.9781C55.1726 17.4568 56.5799 17.3525 57.7698 17.3525H59.3466C59.3466 15.6283 58.5595 15.0482 56.8767 15.0482C55.6629 15.0482 54.4518 15.5053 53.4898 16.2138L53.4023 13.8212ZM56.7495 22.1723C57.6214 22.1723 58.3051 21.7981 58.7504 21.2127C59.2194 20.6139 59.3466 19.844 59.3466 19.0126H58.1143C56.8316 19.0126 54.9368 19.2184 54.9368 20.8571C54.9341 21.774 55.7265 22.1723 56.7495 22.1723Z" fill="black" fill-opacity="0.8"/>
<path d="M64.7554 13.2625H67.4638V14.7168H67.5089C68.4047 13.4897 69.6184 13.0139 71.1105 13.0139C73.7103 13.0139 74.8393 14.7996 74.8393 17.2055V23.958H71.9824V18.2481C71.9824 16.9382 71.9612 15.1712 70.1299 15.1712C68.0628 15.1712 67.6149 17.3525 67.6149 18.7239V23.958H64.7554V13.2625Z" fill="black" fill-opacity="0.8"/>
<path d="M84.7352 15.5669C84.2264 15.3344 83.6725 15.1686 82.7953 15.1686C81.0303 15.1686 79.9039 16.5373 79.9039 18.5529C79.9039 20.5284 80.8607 22.0415 82.8642 22.0415C83.6751 22.0415 84.5682 21.7528 85.0585 21.5416L85.1831 23.8512C84.3536 24.0998 83.5002 24.2014 82.3288 24.2014C78.7246 24.2014 76.9146 21.8169 76.9146 18.5529C76.9146 15.4627 78.7882 13.0114 82.2202 13.0114C83.3704 13.0114 84.2025 13.137 84.9923 13.3615L84.7352 15.5669Z" fill="black" fill-opacity="0.8"/>
<path d="M91.9013 13.0139C95.161 13.0139 97.6495 15.1525 97.6495 18.6811C97.6495 21.758 95.5426 24.2067 91.9013 24.2067C88.2785 24.2067 86.1689 21.758 86.1689 18.6811C86.1689 15.1525 88.6628 13.0139 91.9013 13.0139ZM91.9013 22.044C94.0929 22.044 94.6707 20.1327 94.6707 18.347C94.6707 16.7083 93.7749 15.1712 91.9013 15.1712C90.0461 15.1712 89.1504 16.7537 89.1504 18.347C89.1504 20.1166 89.7308 22.044 91.9013 22.044Z" fill="black" fill-opacity="0.8"/>
<path d="M111.467 11.5999C110.532 11.1882 109.487 10.9556 108.443 10.9556C107.426 10.9556 106.101 11.402 106.101 13.0514C106.101 15.6551 112.625 14.5538 112.625 19.6035C112.625 22.9049 110.044 24.1586 107.036 24.1586C105.422 24.1586 104.696 23.9367 103.228 23.5758L103.501 20.8572C104.524 21.4186 105.695 21.7848 106.869 21.7848C107.995 21.7848 109.509 21.202 109.509 19.844C109.509 16.9757 102.989 18.1626 102.989 13.1797C102.989 9.81148 105.568 8.58447 108.189 8.58447C109.464 8.58447 110.659 8.75556 111.745 9.12446L111.467 11.5999Z" fill="black" fill-opacity="0.8"/>
<path d="M115.209 13.8212C116.317 13.3213 117.806 13.0139 119.023 13.0139C122.373 13.0139 123.756 14.3612 123.756 17.5183V18.8896C123.756 19.9669 123.772 20.7796 123.796 21.5655C123.817 22.3728 123.862 23.124 123.92 23.9554H121.408C121.305 23.3913 121.305 22.6883 121.283 22.3595H121.241C120.581 23.5384 119.15 24.204 117.854 24.204C115.912 24.204 114.022 23.0598 114.022 21.0282C114.022 19.4296 114.806 18.494 115.89 17.9781C116.98 17.4568 118.384 17.3525 119.577 17.3525H121.156C121.156 15.6283 120.364 15.0482 118.686 15.0482C117.47 15.0482 116.256 15.508 115.297 16.2138L115.209 13.8212ZM118.554 22.1723C119.428 22.1723 120.112 21.7981 120.557 21.2127C121.021 20.6139 121.154 19.844 121.154 19.0126H119.919C118.639 19.0126 116.741 19.2184 116.741 20.8571C116.741 21.774 117.533 22.1723 118.554 22.1723Z" fill="black" fill-opacity="0.8"/>
<path d="M126.565 13.2625H129.271V14.7168H129.314C130.209 13.4897 131.421 13.0139 132.918 13.0139C135.515 13.0139 136.647 14.7996 136.647 17.2055V23.958H133.79V18.2481C133.79 16.9382 133.766 15.1712 131.935 15.1712C129.868 15.1712 129.42 17.3525 129.42 18.7239V23.958H126.565V13.2625Z" fill="black" fill-opacity="0.8"/>
<path d="M140.521 15.2942H138.412V13.2599H140.521V11.1187L143.378 10.2258V13.2599H145.912V15.2942H143.378V20.2771C143.378 21.1967 143.635 22.0441 144.719 22.0441C145.23 22.0441 145.721 21.9425 146.02 21.7554L146.105 23.9554C145.509 24.1212 144.849 24.2041 143.998 24.2041C141.753 24.2041 140.521 22.8568 140.521 20.7342V15.2942Z" fill="black" fill-opacity="0.8"/>
<path d="M148.363 13.8212C149.471 13.3213 150.963 13.0139 152.177 13.0139C155.524 13.0139 156.91 14.3612 156.91 17.5183V18.8896C156.91 19.9669 156.926 20.7796 156.952 21.5655C156.971 22.3728 157.021 23.124 157.079 23.9554H154.564C154.458 23.394 154.458 22.6883 154.437 22.3595H154.395C153.735 23.541 152.309 24.204 151.008 24.204C149.068 24.204 147.17 23.0598 147.17 21.0282C147.17 19.4296 147.96 18.494 149.044 17.9781C150.133 17.4568 151.538 17.3525 152.73 17.3525H154.307C154.307 15.6283 153.52 15.0482 151.837 15.0482C150.624 15.0482 149.41 15.508 148.45 16.2138L148.363 13.8212ZM151.708 22.1723C152.582 22.1723 153.263 21.7981 153.711 21.2127C154.18 20.6139 154.305 19.844 154.305 19.0126H153.067C151.787 19.0126 149.895 19.2184 149.895 20.8571C149.895 21.774 150.687 22.1723 151.708 22.1723Z" fill="black" fill-opacity="0.8"/>
<path d="M163.636 8.83838H171.902V11.2149H166.62V14.9253H171.65V17.2964H166.62V23.8966H163.636V8.83838Z" fill="black" fill-opacity="0.8"/>
<path d="M182.653 23.3539C181.612 23.9153 180.419 24.204 178.882 24.204C175.265 24.204 173.155 22.1723 173.155 18.6624C173.155 15.5695 174.841 13.0139 178.246 13.0139C182.32 13.0139 183.47 15.7326 183.47 19.4697H175.885C176.015 21.1966 177.252 22.1723 179.017 22.1723C180.398 22.1723 181.593 21.6725 182.656 21.0897V23.3539H182.653ZM180.737 17.561C180.653 16.2111 180.014 15.0456 178.411 15.0456C176.818 15.0456 176.01 16.1282 175.88 17.561H180.737Z" fill="black" fill-opacity="0.8"/>
</svg>
