<svg width="237" height="40" viewBox="0 0 237 40" fill="none" xmlns="http://www.w3.org/2000/svg">
<path d="M20.7783 1V19.772L17.5282 16.5224L20.7783 1Z" fill="#FAAD29"/>
<path d="M10.2422 9.08313L17.5372 16.5349L14.9865 16.5077L10.2422 9.08313Z" fill="#FAAD29"/>
<path d="M39.5527 19.772H20.7784L24.027 16.5223L39.5527 19.772Z" fill="#FAAD29"/>
<path d="M31.4665 9.23865L24.0149 16.535L24.0409 13.9833L31.4665 9.23865Z" fill="#FAAD29"/>
<path d="M20.7784 38.5501V19.772L24.0278 23.021L20.7784 38.5501Z" fill="#FAAD29"/>
<path d="M31.3137 30.4598L24.0172 23.0078L26.5681 23.0358L31.3137 30.4598Z" fill="#FAAD29"/>
<path d="M2 19.772H20.7784L17.5282 23.021L2 19.772Z" fill="#FAAD29"/>
<path d="M10.0882 30.3081L17.5373 23.0078L17.5097 25.5645L10.0882 30.3081Z" fill="#FAAD29"/>
<path d="M48.0003 10H54.4747C56.8596 10 60.4415 10.7047 60.4415 14.873C60.4415 17.1294 58.9565 18.7089 56.755 19.1183V19.1697C59.2765 19.415 61 21.1589 61 23.4972C61 28.2922 56.8097 29 54.4747 29H48L48.0003 10ZM51.7154 17.6752H53.2275C54.7917 17.6752 56.7282 17.321 56.7282 15.3609C56.7282 13.1561 54.8453 12.9924 53.146 12.9924H51.7154V17.6752ZM51.7154 26.0038H53.4657C55.1885 26.0038 57.2853 25.5694 57.2853 23.3647C57.2853 20.8872 55.3227 20.5066 53.4657 20.5066H51.7154V26.0038Z" fill="black" fill-opacity="0.8"/>
<path d="M64.4464 16.0104C65.788 15.3879 67.5946 15 69.0658 15C73.1161 15 74.7935 16.6865 74.7935 20.6358V22.3491C74.7935 23.7002 74.8216 24.7151 74.8444 25.6986C74.8718 26.7134 74.9227 27.6485 75 28.6874H71.9539C71.827 27.9848 71.827 27.1031 71.8012 26.6873H71.749C70.9467 28.1691 69.2204 29 67.6455 29C65.2986 29 63 27.5728 63 25.0242C63 23.0258 63.9563 21.8538 65.2709 21.2056C66.5877 20.557 68.2892 20.4267 69.7356 20.4267H71.6446C71.6446 18.2715 70.6903 17.5421 68.6517 17.5421C67.1805 17.5421 65.7097 18.1147 64.5501 18.9992L64.4464 16.0104ZM68.4984 26.4545C69.5565 26.4545 70.38 25.9864 70.9239 25.2584C71.4906 24.506 71.6453 23.5434 71.6453 22.5059H70.149C68.6015 22.5059 66.3052 22.7662 66.3052 24.8179C66.3048 25.9603 67.2595 26.4545 68.4984 26.4545Z" fill="black" fill-opacity="0.8"/>
<path d="M79.0007 15.3173H82.2231V17.1779H82.2738C83.3407 15.6106 84.7883 15 86.5612 15C89.6553 15 91 17.2852 91 20.365V28.9996H87.6021V21.6931C87.6021 20.0196 87.5748 17.7639 85.3952 17.7639C82.9336 17.7639 82.4018 20.5517 82.4018 22.3055V29H79L79.0007 15.3173Z" fill="black" fill-opacity="0.8"/>
<path d="M104.404 18.1948C103.724 17.9063 102.987 17.7017 101.824 17.7017C99.4717 17.7017 97.97 19.4139 97.97 21.9336C97.97 24.4011 99.2451 26.297 101.911 26.297C102.988 26.297 104.179 25.9342 104.832 25.6749L105 28.5574C103.896 28.8697 102.762 29 101.202 29C96.4112 29 94 26.014 94 21.9336C94 18.0634 96.4958 15 101.058 15C102.59 15 103.698 15.1551 104.745 15.4398L104.404 18.1948Z" fill="black" fill-opacity="0.8"/>
<path d="M113.488 15C117.745 15 121 17.6738 121 22.0891C121 25.9342 118.245 29 113.488 29C108.758 29 106 25.9342 106 22.0891C106 17.6741 109.258 15 113.488 15ZM113.488 26.297C116.353 26.297 117.105 23.91 117.105 21.6757C117.105 19.6227 115.936 17.702 113.488 17.702C111.067 17.702 109.897 19.676 109.897 21.6757C109.897 23.8835 110.65 26.297 113.488 26.297Z" fill="black" fill-opacity="0.8"/>
<path d="M137.564 13.6837C136.397 13.1849 135.096 12.8962 133.796 12.8962C132.522 12.8962 130.877 13.4472 130.877 15.4469C130.877 18.6308 139 17.2896 139 23.4468C139 27.4729 135.786 29 132.043 29C130.027 29 129.121 28.7334 127.291 28.2896L127.638 24.9725C128.911 25.6577 130.372 26.1045 131.832 26.1045C133.237 26.1045 135.122 25.3918 135.122 23.7356C135.122 20.2364 127 21.6839 127 15.6048C127 11.5006 130.211 10 133.478 10C135.07 10 136.556 10.2103 137.91 10.6594L137.564 13.6837Z" fill="black" fill-opacity="0.8"/>
<path d="M142.447 16.0104C143.791 15.3879 145.595 15 147.067 15C151.118 15 152.796 16.6865 152.796 20.6358V22.3491C152.796 23.7002 152.819 24.7151 152.845 25.6986C152.871 26.7134 152.922 27.6485 153 28.6874H149.956C149.826 27.9848 149.826 27.1031 149.801 26.6873H149.751C148.949 28.1691 147.221 29 145.645 29C143.298 29 141 27.5728 141 25.0242C141 23.0258 141.957 21.8538 143.272 21.2056C144.587 20.557 146.291 20.4267 147.735 20.4267H149.646C149.646 18.2715 148.689 17.5421 146.653 17.5421C145.181 17.5421 143.708 18.1147 142.549 18.9992L142.447 16.0104ZM146.499 26.4545C147.557 26.4545 148.381 25.9864 148.926 25.2584C149.493 24.506 149.647 23.5434 149.647 22.5059H148.15C146.602 22.5059 144.305 22.7662 144.305 24.8179C144.304 25.9603 145.259 26.4545 146.499 26.4545Z" fill="black" fill-opacity="0.8"/>
<path d="M204.326 16.0114C205.556 15.3883 207.211 15 208.56 15C212.274 15 213.809 16.6862 213.809 20.6359V22.3499C213.809 23.7015 213.833 24.7143 213.857 25.7002C213.881 26.7137 213.928 27.6495 214 28.6881H211.207C211.089 27.9872 211.089 27.1047 211.067 26.6886H211.02C210.286 28.1691 208.702 29 207.258 29C205.105 29 203 27.5718 203 25.0262C203 23.0267 203.876 21.855 205.082 21.2071C206.286 20.5582 207.848 20.4292 209.173 20.4292H210.923C210.923 18.2722 210.047 17.5445 208.182 17.5445C206.832 17.5445 205.484 18.1158 204.42 19.0006L204.326 16.0114ZM208.039 26.4548C209.01 26.4548 209.764 25.9874 210.264 25.2583C210.783 24.5062 210.924 23.545 210.924 22.5057H209.554C208.134 22.5057 206.029 22.7664 206.029 24.8181C206.029 25.9585 206.903 26.4548 208.039 26.4548Z" fill="black" fill-opacity="0.8"/>
<path d="M156.001 15.3173H159.491V17.1779H159.545C160.701 15.6106 162.267 15 164.191 15C167.544 15 169 17.2852 169 20.365V28.9996H165.318V21.6931C165.318 20.0196 165.289 17.7639 162.926 17.7639C160.258 17.7639 159.682 20.5517 159.682 22.3055V29H156V15.3176H156.001V15.3173Z" fill="black" fill-opacity="0.8"/>
<path d="M175 25.6021C175.573 25.7801 176.179 25.9065 177.024 25.9065C179.772 25.9065 179.772 24.0558 179.772 22.789V11H184V24.4873C184 26.3627 182.551 29 178.232 29C177.083 29 176.179 28.9236 175.001 28.6709V25.6021H175Z" fill="black" fill-opacity="0.8"/>
<path d="M200 28.6806H196.509V26.8211H196.454C195.328 28.1502 193.734 29 191.812 29C188.456 29 187 26.7159 187 23.6333V15H190.684V22.3056C190.684 23.9782 190.71 26.2368 193.074 26.2368C195.741 26.2368 196.317 23.4485 196.317 21.6944V15H200V28.6806Z" fill="black" fill-opacity="0.8"/>
<path d="M218 15.3108H221.412V17.1285H221.465C222.595 15.5948 224.122 15 226.01 15C229.284 15 230.711 17.2321 230.711 20.2395V28.6802H227.109V21.5427C227.109 19.9053 227.079 17.6966 224.77 17.6966C222.164 17.6966 221.599 20.4233 221.599 22.1375V28.6802H218V15.3108Z" fill="black" fill-opacity="0.8"/>
</svg>
