<svg width="232" height="40" viewBox="0 0 232 40" fill="none" xmlns="http://www.w3.org/2000/svg">
<path d="M45.604 11.7439H51.4545C53.6121 11.7439 56.8471 12.3693 56.8471 16.0652C56.8471 18.0672 55.5034 19.4678 53.5164 19.8299V19.8747C55.7937 20.0932 57.3529 21.6374 57.3529 23.7142C57.3529 27.9667 53.5642 28.5921 51.4545 28.5921H45.604V11.7439ZM48.9617 18.549H50.3293C51.7448 18.549 53.4954 18.2348 53.4954 16.4961C53.4954 14.539 51.7926 14.3953 50.2574 14.3953H48.9617V18.549ZM48.9617 25.9377H50.5447C52.1009 25.9377 53.9982 25.5517 53.9982 23.5945C53.9982 21.398 52.2236 21.0598 50.5447 21.0598H48.9617V25.9377Z" fill="black" fill-opacity="0.8"/>
<path d="M60.519 17.319C61.7669 16.7594 63.4428 16.4122 64.8104 16.4122C68.5751 16.4122 70.1312 17.9235 70.1312 21.4577V22.9929C70.1312 24.2019 70.1581 25.1087 70.1791 25.9885C70.206 26.8953 70.2509 27.7332 70.3227 28.6639H67.4947C67.378 28.0384 67.378 27.2454 67.3511 26.8743H67.3032C66.5581 28.2 64.954 28.9422 63.4907 28.9422C61.3091 28.9422 59.1754 27.6643 59.1754 25.387C59.1754 23.5974 60.0641 22.55 61.2851 21.9695C62.5091 21.3889 64.0892 21.2722 65.4328 21.2722H67.2074C67.2074 19.342 66.3186 18.6926 64.4243 18.6926C63.0597 18.6926 61.6921 19.2043 60.6118 19.9973L60.519 17.319ZM64.2807 26.6648C65.2653 26.6648 66.0314 26.2459 66.5341 25.5935C67.0608 24.9201 67.2045 24.0583 67.2045 23.1306H65.8129C64.3765 23.1306 62.2427 23.364 62.2427 25.1985C62.2457 26.2219 63.1315 26.6648 64.2807 26.6648Z" fill="black" fill-opacity="0.8"/>
<path d="M73.2973 16.6935H76.3438V18.3185H76.3917C77.4002 16.9479 78.7678 16.4122 80.4436 16.4122C83.3674 16.4122 84.6362 18.4113 84.6362 21.1076V28.6639H81.4252V22.2717C81.4252 20.8083 81.4012 18.8332 79.3394 18.8332C77.0141 18.8332 76.5114 21.2722 76.5114 22.8074V28.6669H73.2973V16.6935Z" fill="black" fill-opacity="0.8"/>
<path d="M95.7776 19.2731C95.203 19.0158 94.5776 18.8332 93.596 18.8332C91.606 18.8332 90.3341 20.3654 90.3341 22.6188C90.3341 24.8274 91.4144 26.5242 93.6649 26.5242C94.5776 26.5242 95.5831 26.198 96.1367 25.9675L96.2804 28.5472C95.3467 28.8255 94.3861 28.9422 93.0663 28.9422C89.0144 28.9422 86.9764 26.2698 86.9764 22.6188C86.9764 19.1564 89.0892 16.4152 92.9466 16.4152C94.2424 16.4152 95.1761 16.5559 96.0619 16.8102L95.7776 19.2731Z" fill="black" fill-opacity="0.8"/>
<path d="M103.84 16.4122C107.509 16.4122 110.313 18.8063 110.313 22.7565C110.313 26.198 107.939 28.9392 103.84 28.9392C99.7667 28.9392 97.3906 26.195 97.3906 22.7565C97.3906 18.8063 100.195 16.4122 103.84 16.4122ZM103.84 26.5242C106.309 26.5242 106.958 24.3845 106.958 22.3884C106.958 20.551 105.949 18.8332 103.84 18.8332C101.754 18.8332 100.745 20.5989 100.745 22.3884C100.745 24.3635 101.395 26.5242 103.84 26.5242Z" fill="black" fill-opacity="0.8"/>
<path d="M126.095 14.8321C125.042 14.3743 123.866 14.1079 122.69 14.1079C121.541 14.1079 120.053 14.6137 120.053 16.4481C120.053 19.3689 127.391 18.1389 127.391 23.7859C127.391 27.4818 124.488 28.8823 121.107 28.8823C119.284 28.8823 118.47 28.6399 116.815 28.2299L117.127 25.1865C118.279 25.8149 119.596 26.2249 120.915 26.2249C122.184 26.2249 123.887 25.5725 123.887 24.0523C123.887 20.8412 116.549 22.1699 116.549 16.5918C116.549 12.8241 119.452 11.4475 122.4 11.4475C123.836 11.4475 125.18 11.639 126.404 12.052L126.095 14.8321Z" fill="black" fill-opacity="0.8"/>
<path d="M130.3 17.319C131.548 16.7594 133.224 16.4122 134.591 16.4122C138.356 16.4122 139.915 17.9235 139.915 21.4577V22.9929C139.915 24.2019 139.936 25.1087 139.963 25.9885C139.987 26.8953 140.035 27.7332 140.107 28.6639H137.276C137.156 28.0384 137.156 27.2454 137.132 26.8743H137.084C136.342 28.2 134.735 28.9422 133.272 28.9422C131.09 28.9422 128.956 27.6643 128.956 25.387C128.956 23.5974 129.845 22.55 131.066 21.9695C132.287 21.3889 133.87 21.2722 135.214 21.2722H136.988C136.988 19.342 136.1 18.6926 134.208 18.6926C132.841 18.6926 131.47 19.2043 130.393 19.9973L130.3 17.319ZM134.065 26.6648C135.049 26.6648 135.815 26.2459 136.321 25.5935C136.848 24.9201 136.991 24.0583 136.991 23.1306H135.6C134.16 23.1306 132.027 23.364 132.027 25.1985C132.027 26.2219 132.916 26.6648 134.065 26.6648Z" fill="black" fill-opacity="0.8"/>
<path d="M143.081 16.6935H146.125V18.3185H146.173C147.181 16.9479 148.546 16.4122 150.225 16.4122C153.148 16.4122 154.42 18.4113 154.42 21.1076V28.6639H151.209V22.2717C151.209 20.8083 151.182 18.8332 149.123 18.8332C146.798 18.8332 146.292 21.2722 146.292 22.8074V28.6669H143.081V16.6935Z" fill="black" fill-opacity="0.8"/>
<path d="M158.786 18.9679H156.413V16.6936H158.786V14.2965L162 13.297V16.6936H164.852V18.9679H162V24.5491C162 25.5726 162.288 26.5242 163.509 26.5242C164.086 26.5242 164.637 26.4105 164.975 26.198L165.068 28.6639C164.395 28.8494 163.652 28.9422 162.692 28.9422C160.175 28.9422 158.783 27.434 158.783 25.0608V18.9679H158.786Z" fill="black" fill-opacity="0.8"/>
<path d="M167.609 17.319C168.857 16.7594 170.532 16.4122 171.9 16.4122C175.665 16.4122 177.224 17.9235 177.224 21.4577V22.9929C177.224 24.2019 177.245 25.1087 177.272 25.9885C177.296 26.8953 177.343 27.7332 177.415 28.6639H174.587C174.465 28.0384 174.465 27.2454 174.441 26.8743H174.393C173.651 28.2 172.044 28.9422 170.58 28.9422C168.399 28.9422 166.265 27.6643 166.265 25.387C166.265 23.5974 167.154 22.55 168.375 21.9695C169.599 21.3889 171.179 21.2722 172.522 21.2722H174.297C174.297 19.342 173.411 18.6926 171.514 18.6926C170.149 18.6926 168.782 19.2043 167.701 19.9973L167.609 17.319ZM171.373 26.6648C172.358 26.6648 173.124 26.2459 173.627 25.5935C174.153 24.9201 174.3 24.0583 174.3 23.1306H172.908C171.469 23.1306 169.335 23.364 169.335 25.1985C169.335 26.2219 170.224 26.6648 171.373 26.6648Z" fill="black" fill-opacity="0.8"/>
<path d="M196.439 28.3886C195.227 28.6699 193.925 28.9063 192.665 28.9063C187.303 28.9063 183.577 26.2459 183.577 20.6887C183.577 15.0626 187.042 11.9055 192.665 11.9055C193.758 11.9055 195.206 12.1179 196.415 12.5878L196.179 15.3679C194.922 14.6586 193.782 14.494 192.597 14.494C189.179 14.494 187.042 17.0856 187.042 20.4523C187.042 23.795 189.131 26.3147 192.668 26.3147C193.973 26.3147 195.517 26.0304 196.301 25.6294L196.439 28.3886Z" fill="black" fill-opacity="0.8"/>
<path d="M198.669 16.4991H201.494V19.2523H201.542C201.685 18.1211 202.99 16.2148 204.887 16.2148C205.195 16.2148 205.528 16.2148 205.86 16.3106V19.4887C205.576 19.3241 205.007 19.2284 204.435 19.2284C201.847 19.2284 201.847 22.4304 201.847 24.1721V28.6221H198.669V16.4991Z" fill="black" fill-opacity="0.8"/>
<path d="M219.234 28.625H216.22V26.9761H216.172C215.2 28.1521 213.823 28.9093 212.162 28.9093C209.265 28.9093 208.008 26.8833 208.008 24.154V16.502H211.19V22.978C211.19 24.4623 211.214 26.4613 213.254 26.4613C215.556 26.4613 216.056 23.9895 216.056 22.4363V16.502H219.237V28.625H219.234Z" fill="black" fill-opacity="0.8"/>
<path d="M222.104 16.499H231.788V19.0876L225.713 26.177H232V28.625H221.843V26.0573L228.035 18.947H222.104V16.499Z" fill="black" fill-opacity="0.8"/>
<path d="M0 2V25.0309C1.50826 22.3675 6.51485 13.8776 9.13336 13.8776C10.3753 13.8776 12.4462 17.1006 12.4462 17.1006C12.4462 17.1006 22.594 32.4884 36.3958 32.9313V2H0ZM22.4294 17.0706L18.4193 19.6353L22.4474 15.6941L22.4294 17.0706ZM25.9517 15.6941L27.3253 15.703L29.8899 19.7131L25.9487 15.703L24.198 24.0883V13.9464L22.4414 15.6971L14.0472 13.9464H24.198L22.4414 12.1868L24.198 3.79555V13.9434L25.9427 12.1927L25.9607 10.8102L29.9737 8.25151L25.9517 12.1868L34.3369 13.9434H24.198L25.9517 15.6941ZM18.5001 8.16173L22.4444 12.1927L21.0648 12.1718L18.5001 8.16173Z" fill="#116DD9"/>
<path d="M36.3958 38.3929V35.7025C33.7893 35.6427 23.1027 34.6222 13.7749 22.4035L9.02862 35.5828V16.6278C9.02862 16.6278 5.44051 19.1506 0.00299072 29.6096V38.3929H36.3958Z" fill="#9E9E9F"/>
</svg>
