<svg width="232" height="40" viewBox="0 0 232 40" fill="none" xmlns="http://www.w3.org/2000/svg">
<path d="M6.68786 15.5792C6.21847 23.0242 12.5133 30.0154 22.4763 34.5477C24.7549 32.6484 26.7009 30.404 28.2582 27.8488C32.9366 20.1644 33.6299 10.5962 30.9689 1.00311H18.9636C11.7331 4.47228 7.064 9.60764 6.68786 15.5792Z" fill="#DA1E28"/>
<path d="M15.5535 38.8096C7.26917 33.696 2.24261 26.4095 2.73065 18.6567C3.19383 11.3391 8.48462 5.07223 16.5296 1H0.0790405V38.8096H15.4976C15.5162 38.8034 15.5349 38.8189 15.5535 38.8096Z" fill="#DA1E28"/>
<path d="M37.898 1.00311H33.3781C33.7418 2.22167 34.0651 3.44956 34.3324 4.68988C36.7758 15.8528 35.1531 26.8851 29.7628 35.7445C29.5079 36.1673 27.9754 38.4055 27.705 38.8127H37.8949V1.00311H37.898Z" fill="#DA1E28"/>
<path d="M135.075 16.2071H138.233V17.8982H138.277C139.324 16.4745 140.742 15.918 142.483 15.918C145.52 15.918 146.838 17.9946 146.838 20.7954V28.6445H143.506V22.0015C143.506 20.4814 143.481 18.4298 141.342 18.4298C138.923 18.4298 138.407 20.9664 138.407 22.5579V28.6414H135.072V16.2071H135.075Z" fill="black" fill-opacity="0.8"/>
<path d="M151.367 18.2805H148.905V15.9149H151.367V13.4249L154.699 12.3867V15.9118H157.659V18.2774H154.699V24.0749C154.699 25.138 155.001 26.1297 156.266 26.1297C156.863 26.1297 157.435 26.0115 157.786 25.7939L157.886 28.3523C157.186 28.5481 156.415 28.6414 155.421 28.6414C152.806 28.6414 151.364 27.0747 151.364 24.6096V18.2805H151.367Z" fill="black" fill-opacity="0.8"/>
<path d="M179.326 27.9451C178.104 28.5979 176.714 28.9367 174.924 28.9367C170.69 28.9367 168.228 26.5711 168.228 22.4864C168.228 18.8898 170.193 15.9211 174.175 15.9211C178.925 15.9211 180.271 19.0857 180.271 23.4315H171.411C171.557 25.4365 173.003 26.5742 175.073 26.5742C176.683 26.5742 178.079 25.9929 179.322 25.3184V27.9451H179.326ZM177.087 21.2057C176.985 19.6359 176.239 18.2806 174.374 18.2806C172.512 18.2806 171.563 19.5395 171.414 21.2057H177.087Z" fill="black" fill-opacity="0.8"/>
<path d="M186.581 10.8728H190.405C194.2 10.8728 198.729 10.7423 198.729 15.6756C198.729 17.7583 197.337 19.4898 195.086 19.7913V19.8442C196.047 19.9188 196.603 20.8855 196.957 21.672L199.792 28.6103H195.845L193.718 23.0709C193.212 21.7497 192.755 21.2399 191.263 21.2399H190.122V28.6103H186.578V10.8728H186.581ZM190.122 18.4484H191.287C193.031 18.4484 195.033 18.1935 195.033 15.9802C195.033 13.8446 193.059 13.6674 191.287 13.6674H190.122V18.4484Z" fill="black" fill-opacity="0.8"/>
<path d="M231.111 18.809C230.126 18.4702 229.405 18.2775 228.223 18.2775C227.359 18.2775 226.321 18.5914 226.321 19.6546C226.321 21.6378 231.932 20.382 231.932 24.8801C231.932 27.7804 229.355 28.943 226.734 28.943C225.503 28.943 224.251 28.7254 223.073 28.4114L223.265 25.7505C224.276 26.2572 225.336 26.5711 226.445 26.5711C227.26 26.5711 228.562 26.2572 228.562 25.0448C228.562 22.6046 222.951 24.2739 222.951 19.7727C222.951 17.0869 225.289 15.8994 227.813 15.8994C229.33 15.8994 230.319 16.1481 231.329 16.3626L231.111 18.809Z" fill="black" fill-opacity="0.8"/>
<path d="M121.435 10.8853H131.858V13.6799H124.975V18.0505H131.276V20.8482H124.975V25.8282H131.907V28.6259H121.435V10.8853Z" fill="black" fill-opacity="0.8"/>
<path d="M159.931 16.0051H162.863V18.8649H162.909C163.058 17.693 164.414 15.7097 166.385 15.7097C166.702 15.7097 167.047 15.7097 167.395 15.8092V19.1074C167.1 18.9396 166.509 18.8401 165.918 18.8401C163.233 18.8401 163.233 22.1694 163.233 23.9786V28.601H159.931V16.0051Z" fill="black" fill-opacity="0.8"/>
<path d="M203.619 10.8728H206.933L203.619 14.4166H201.611L203.619 10.8728ZM201.782 16.1201H205.024V28.6321H201.782V16.1201Z" fill="black" fill-opacity="0.8"/>
<path d="M214.449 15.918C218.257 15.918 221.167 18.4049 221.167 22.5113C221.167 26.0893 218.702 28.9367 214.449 28.9367C210.222 28.9367 207.757 26.0893 207.757 22.5113C207.757 18.4049 210.666 15.918 214.449 15.918ZM214.449 26.4219C217.011 26.4219 217.682 24.2024 217.682 22.1227C217.682 20.2172 216.638 18.4298 214.449 18.4298C212.286 18.4298 211.238 20.2669 211.238 22.1227C211.238 24.1775 211.91 26.4219 214.449 26.4219Z" fill="black" fill-opacity="0.8"/>
<path d="M47.5314 11.0686H53.6024C55.8406 11.0686 59.1979 11.7152 59.1979 15.5574C59.1979 17.637 57.8052 19.095 55.7411 19.468V19.5177C58.1037 19.7447 59.7263 21.3487 59.7263 23.506C59.7263 27.9233 55.794 28.5761 53.6024 28.5761H47.5314V11.0686ZM51.0161 18.1375H52.4336C53.9009 18.1375 55.7194 17.8111 55.7194 16.005C55.7194 13.972 53.9506 13.8228 52.3621 13.8228H51.0192V18.1375H51.0161ZM51.0161 25.8157H52.6574C54.2739 25.8157 56.2416 25.4116 56.2416 23.3817C56.2416 21.1031 54.3982 20.7487 52.6574 20.7487H51.0161V25.8157Z" fill="black" fill-opacity="0.8"/>
<path d="M63.009 16.8599C64.3022 16.2817 66.0399 15.918 67.4605 15.918C71.368 15.918 72.9844 17.4879 72.9844 21.1591V22.7538C72.9844 24.0065 73.0124 24.9515 73.0342 25.8686C73.0559 26.8105 73.1088 27.6809 73.1803 28.6445H70.2489C70.1245 27.9917 70.1245 27.1711 70.1028 26.7856H70.0499C69.279 28.1627 67.6128 28.9336 66.0958 28.9336C63.8297 28.9336 61.6133 27.6032 61.6133 25.2406C61.6133 23.3786 62.5365 22.2937 63.8048 21.6875C65.0731 21.0845 66.7144 20.9664 68.1102 20.9664H69.9536C69.9536 18.9644 69.0334 18.2868 67.0688 18.2868C65.6513 18.2868 64.2307 18.8152 63.1147 19.6421L63.009 16.8599ZM66.9165 26.568C67.9361 26.568 68.7319 26.1328 69.2572 25.4551C69.8043 24.7526 69.9536 23.8604 69.9536 22.8968H68.5112C67.0191 22.8968 64.8057 23.1361 64.8057 25.0448C64.8026 26.1079 65.7197 26.568 66.9165 26.568Z" fill="black" fill-opacity="0.8"/>
<path d="M76.2701 16.2071H79.4316V17.8982H79.4813C80.5289 16.4776 81.9464 15.918 83.6872 15.918C86.7243 15.918 88.0392 17.9946 88.0392 20.7954V28.6445H84.7037V22.0015C84.7037 20.4845 84.6788 18.4298 82.537 18.4298C80.1217 18.4298 79.5994 20.9664 79.5994 22.5579V28.6414H76.267V16.2071H76.2701Z" fill="black" fill-opacity="0.8"/>
<path d="M99.5969 18.8867C99.0032 18.6225 98.3566 18.4298 97.337 18.4298C95.2698 18.4298 93.9518 20.0213 93.9518 22.3621C93.9518 24.6562 95.0708 26.4219 97.4116 26.4219C98.3566 26.4219 99.4011 26.0831 99.9762 25.8406L100.122 28.5233C99.1524 28.8124 98.1608 28.9336 96.7868 28.9336C92.5809 28.9336 90.467 26.1546 90.467 22.3621C90.467 18.7655 92.6586 15.9149 96.6624 15.9149C98.0053 15.9149 98.9783 16.061 99.8953 16.3284L99.5969 18.8867Z" fill="black" fill-opacity="0.8"/>
<path d="M107.962 15.918C111.773 15.918 114.683 18.4049 114.683 22.5113C114.683 26.0893 112.218 28.9367 107.962 28.9367C103.734 28.9367 101.269 26.0893 101.269 22.5113C101.269 18.4018 104.182 15.918 107.962 15.918ZM107.962 26.425C110.527 26.425 111.198 24.2024 111.198 22.1259C111.198 20.2172 110.154 18.4329 107.962 18.4329C105.798 18.4329 104.754 20.27 104.754 22.1259C104.754 24.1775 105.425 26.425 107.962 26.425Z" fill="black" fill-opacity="0.8"/>
</svg>
